<?xml version="1.0" encoding="UTF-8"?>
<svg version="1.1" xmlns="http://www.w3.org/2000/svg" width="500" height="500">
<path d="M0 0 C165 0 330 0 500 0 C500 165 500 330 500 500 C335 500 170 500 0 500 C0 335 0 170 0 0 Z " fill="#F1F1F1" transform="translate(0,0)"/>
<path d="M0 0 C105.27 0 210.54 0 319 0 C319 0.33 319 0.66 319 1 C318.43199677 1.01617371 317.86399353 1.03234741 317.27877808 1.04901123 C280.87153817 2.09350879 244.4860008 3.48776027 208.09833908 5.06902695 C178.39518004 6.3597226 148.6911634 7.56878587 118.97971725 8.65211487 C100.34338235 9.33179389 81.7090681 10.0357608 63.078125 10.8515625 C62.27204866 10.8868424 61.46597233 10.92212231 60.63546944 10.9584713 C52.94322078 11.29584621 45.25120799 11.63815395 37.55956459 11.98906326 C35.46741644 12.08427574 33.37522689 12.17851782 31.28302002 12.27243042 C28.76343096 12.38584306 26.24393026 12.5012465 23.72454834 12.61917114 C16.81057001 12.92936063 9.92081859 13.06919455 3 13 C1.67580106 8.58600353 0.76722276 4.60333655 0 0 Z " fill="#66A30F" transform="translate(94,276)"/>
<path d="M0 0 C11 0 11 0 14.27734375 2.71875 C15.19993143 3.95315361 16.08552078 5.21584591 16.9375 6.5 C17.42057617 7.16330322 17.90365234 7.82660645 18.40136719 8.51000977 C19.42552105 9.91978757 20.43518738 11.34018794 21.43115234 12.77001953 C23.53941216 15.76672746 25.75431337 18.67682226 27.97387695 21.59155273 C30.33652982 24.71220309 32.6648736 27.85869901 35 31 C35.33 20.77 35.66 10.54 36 0 C39.63 0 43.26 0 47 0 C47 17.16 47 34.32 47 52 C37 52 37 52 34.58203125 50.296875 C33.99808594 49.45640625 33.41414063 48.6159375 32.8125 47.75 C32.09578125 46.76515625 31.3790625 45.7803125 30.640625 44.765625 C30.23908203 44.18748047 29.83753906 43.60933594 29.42382812 43.01367188 C27.72391159 40.60953752 25.95207718 38.2671657 24.171875 35.921875 C21.48822154 32.38457876 18.81369107 28.84121232 16.16015625 25.28125 C15.31916382 24.15299805 15.31916382 24.15299805 14.46118164 23.00195312 C13.26583411 21.36421716 12.12469275 19.68703913 11 18 C10.67 29.22 10.34 40.44 10 52 C6.7 52 3.4 52 0 52 C0 34.84 0 17.68 0 0 Z " fill="#69A514" transform="translate(158,212)"/>
<path d="M0 0 C1.10021484 -0.03673828 1.10021484 -0.03673828 2.22265625 -0.07421875 C7.44127145 -0.10222563 10.37985348 0.92134777 14.5 4.375 C17.93638971 7.90151283 17.8522017 10.72926153 17.79296875 15.546875 C17.78872391 16.2292926 17.78447906 16.91171021 17.78010559 17.61480713 C17.76336972 19.78528004 17.72572959 21.95480979 17.6875 24.125 C17.67244646 25.60024697 17.65875922 27.07550855 17.64648438 28.55078125 C17.61348377 32.15915844 17.56173767 35.7669871 17.5 39.375 C14.2 39.375 10.9 39.375 7.5 39.375 C7.5 38.715 7.5 38.055 7.5 37.375 C6.51 37.87 5.52 38.365 4.5 38.875 C-0.78519303 41.1172031 -5.27419106 41.18827634 -10.75 39.1875 C-13.90513357 37.10798015 -15.63159747 35.68063525 -17.5 32.375 C-18.10916041 29.24380162 -18.16357206 26.50002742 -17.5 23.375 C-14.93266235 20.02319807 -12.39662321 17.93641285 -8.5 16.375 C-5.625 16.14453125 -5.625 16.14453125 -2.5 16.1875 C-0.953125 16.19716797 -0.953125 16.19716797 0.625 16.20703125 C3.08068682 16.35050208 5.15507755 16.6703959 7.5 17.375 C6.90138258 15.02328869 6.23075648 12.6890622 5.5 10.375 C-0.03343483 7.60828259 -6.89289973 9.77297135 -12.5 11.375 C-15.47973778 7.08417759 -15.47973778 7.08417759 -15.5625 4.1875 C-12.71806008 -0.66477986 -5.01010978 0.00880511 0 0 Z " fill="#68A513" transform="translate(227.5,224.625)"/>
<path d="M0 0 C1.07765625 0.01804688 2.1553125 0.03609375 3.265625 0.0546875 C4.49539063 0.08949219 4.49539063 0.08949219 5.75 0.125 C5.75 3.095 5.75 6.065 5.75 9.125 C1.295 9.62 1.295 9.62 -3.25 10.125 C-3.91 12.435 -4.57 14.745 -5.25 17.125 C-1.62 17.125 2.01 17.125 5.75 17.125 C5.75 20.095 5.75 23.065 5.75 26.125 C2.12 26.125 -1.51 26.125 -5.25 26.125 C-5.25 36.025 -5.25 45.925 -5.25 56.125 C-8.55 56.125 -11.85 56.125 -15.25 56.125 C-15.25 46.225 -15.25 36.325 -15.25 26.125 C-18.22 26.125 -21.19 26.125 -24.25 26.125 C-24.25 23.155 -24.25 20.185 -24.25 17.125 C-21.28 17.125 -18.31 17.125 -15.25 17.125 C-15.353125 15.76375 -15.45625 14.4025 -15.5625 13 C-15.56806268 9.46769851 -15.24180698 7.45033857 -13 4.6875 C-8.62509395 0.610883 -5.98071826 -0.13001561 0 0 Z " fill="#68A412" transform="translate(272.25,207.875)"/>
<path d="M0 0 C1.07604492 -0.00193359 1.07604492 -0.00193359 2.17382812 -0.00390625 C7.80800764 0.10867499 11.56581067 1.21054045 16.3125 4.375 C14.6625 6.685 13.0125 8.995 11.3125 11.375 C10.44238281 11.05015625 10.44238281 11.05015625 9.5546875 10.71875 C5.01225079 9.09966365 1.2057766 7.89760716 -3.6875 8.375 C-4.6775 8.87 -4.6775 8.87 -5.6875 9.375 C-5.6875 10.695 -5.6875 12.015 -5.6875 13.375 C-4.40875 13.643125 -3.13 13.91125 -1.8125 14.1875 C11.35228904 17.16153607 11.35228904 17.16153607 15.9375 20 C18.1043655 23.74276768 18.14437688 27.17183259 17.3125 31.375 C14.776451 35.52489837 12.02991825 38.22031703 7.38671875 39.90234375 C-1.06328705 41.82786296 -8.03567114 40.0930253 -15.6875 36.375 C-15.6875 32.10673127 -15.31136487 31.43617568 -12.6875 28.375 C-6.9375 30.25 -6.9375 30.25 -4.6875 31.375 C-2.35164299 31.6867453 -2.35164299 31.6867453 0.25 31.75 C1.12527344 31.79898437 2.00054687 31.84796875 2.90234375 31.8984375 C5.57875186 31.59863768 5.57875186 31.59863768 7.12890625 28.8515625 C7.51949219 28.03429687 7.91007812 27.21703125 8.3125 26.375 C7.22710937 26.20484375 6.14171875 26.0346875 5.0234375 25.859375 C3.57799711 25.61533961 2.13269144 25.37050538 0.6875 25.125 C-0.38177734 24.96064453 -0.38177734 24.96064453 -1.47265625 24.79296875 C-6.36450475 23.94026121 -9.72532766 22.5399785 -13.6875 19.375 C-16.35826635 15.36885048 -16.51537585 12.08561361 -15.6875 7.375 C-11.1473214 1.6077461 -7.13214447 -0.01302675 0 0 Z " fill="#69A513" transform="translate(327.6875,224.625)"/>
<path d="M0 0 C3.63 0 7.26 0 11 0 C11 12.87 11 25.74 11 39 C7.37 39 3.74 39 0 39 C0 26.13 0 13.26 0 0 Z " fill="#6EA81C" transform="translate(281,225)"/>
<path d="M0 0 C3.3 0 6.6 0 10 0 C10 12.87 10 25.74 10 39 C6.7 39 3.4 39 0 39 C0 26.13 0 13.26 0 0 Z " fill="#68A512" transform="translate(298,225)"/>
<path d="M0 0 C1.08152344 0.01417969 2.16304687 0.02835938 3.27734375 0.04296875 C4.90349609 0.05263672 4.90349609 0.05263672 6.5625 0.0625 C9.21484375 0.23046875 9.21484375 0.23046875 10.21484375 1.23046875 C10.25565158 3.23005239 10.25738731 5.23092129 10.21484375 7.23046875 C7.22076552 8.9530891 5.03734782 9.50352898 1.58984375 9.48046875 C0.81382812 9.485625 0.0378125 9.49078125 -0.76171875 9.49609375 C-2.78515625 9.23046875 -2.78515625 9.23046875 -4.78515625 7.23046875 C-5.03515625 4.73046875 -5.03515625 4.73046875 -4.78515625 2.23046875 C-2.78515625 0.23046875 -2.78515625 0.23046875 0 0 Z " fill="#EFF0ED" transform="translate(224.78515625,247.76953125)"/>
<path d="M0 0 C1.875 1.0625 1.875 1.0625 3 3 C2.55555556 9.44444444 2.55555556 9.44444444 1 11 C-2.4375 11.1875 -2.4375 11.1875 -6 11 C-8 9 -8 9 -8.3125 5.5 C-8.209375 4.345 -8.10625 3.19 -8 2 C-4.76746204 -0.15502531 -3.74849077 -0.46856135 0 0 Z " fill="#69A513" transform="translate(289,209)"/>
<path d="M0 0 C1.38125018 2.76250036 1.19079306 4.94731099 1 8 C-1 10 -1 10 -4.5 10.3125 C-6.2325 10.1578125 -6.2325 10.1578125 -8 10 C-10.15502531 6.76746204 -10.46856135 5.74849077 -10 2 C-7.59587398 -2.24257532 -4.222762 -1.01659085 0 0 Z " fill="#68A512" transform="translate(307,210)"/>
</svg>
